<svg class="vz5" viewBox="0 0 744 520" width="100%" role="img" aria-label="The E2F family splits into three roles" xmlns="http://www.w3.org/2000/svg"><style>.vz5{--srf:#fcfcfb;--pri:#0b0b0b;--sec:#52514e;--mut:#898781;--grd:#e1e0d9;--axs:#c3c2b7;--bnd:#f0efec;--s1:#2a78d6;--s2:#eb6834;--s3:#1baf7a}@media (prefers-color-scheme:dark){:root:where(:not([data-theme="light"])) .vz5{--srf:#1a1a19;--pri:#ffffff;--sec:#c3c2b7;--mut:#898781;--grd:#2c2c2a;--axs:#383835;--bnd:#262624;--s1:#3987e5;--s2:#d95926;--s3:#199e70}}:root[data-theme="dark"] .vz5{--srf:#1a1a19;--pri:#ffffff;--sec:#c3c2b7;--mut:#898781;--grd:#2c2c2a;--axs:#383835;--bnd:#262624;--s1:#3987e5;--s2:#d95926;--s3:#199e70}.vz5 text{font-family:system-ui,-apple-system,'Segoe UI',sans-serif}.vz5 .ttl{font-size:14.5px;font-weight:650;fill:var(--pri)}.vz5 .sub{font-size:12px;fill:var(--sec)}.vz5 .lbl{font-size:11.5px;fill:var(--sec)}.vz5 .tick{font-size:11px;fill:var(--mut);font-variant-numeric:tabular-nums}.vz5 .val{font-size:11px;font-weight:620;fill:var(--pri);font-variant-numeric:tabular-nums}.vz5 .note{font-size:11px;fill:var(--mut)}.vz5 .key{font-size:11.5px;font-weight:600;fill:var(--pri)}.vz5 .boxttl{font-size:12.5px;font-weight:650;fill:var(--pri)}.vz5 .boxln{font-size:11px;fill:var(--sec);font-family:ui-monospace,'SF Mono',Menlo,Consolas,monospace}.vz5 .edge{font-size:10.5px;fill:var(--mut)}.vz5 .tagA{font-size:10.5px;font-weight:620;fill:var(--s2)}.vz5 .tagN{font-size:10.5px;fill:var(--mut)}.vz5 .noden{font-size:10px;fill:var(--sec)}.vz5 .nodeb{font-size:10px;font-weight:650;fill:var(--pri)}.vz5 .colttl{font-size:11px;font-weight:650;letter-spacing:.05em;text-transform:uppercase;fill:var(--mut)}</style><rect width="100%" height="100%" fill="var(--srf)"/><text x="12" y="22" class="ttl" text-anchor="start">The E2F family splits into three roles</text><text x="12" y="40" class="sub" text-anchor="start">Mean log-normalised expression. Cell shade = magnitude (0 → 0.71).</text><text x="86" y="117" class="val" text-anchor="end">E2f1</text><rect x="97" y="97" width="74" height="32" rx="3" fill="#5598e7"/><text x="134" y="117" style="font-size:10.5px;font-variant-numeric:tabular-nums;fill:#0b0b0b" text-anchor="middle">0.19</text><rect x="173" y="97" width="74" height="32" rx="3" fill="#3987e5"/><text x="210" y="117" style="font-size:10.5px;font-variant-numeric:tabular-nums;fill:#0b0b0b" text-anchor="middle">0.24</text><rect x="249" y="97" width="74" height="32" rx="3" fill="#cde2fb"/><text x="286" y="117" style="font-size:10.5px;font-variant-numeric:tabular-nums;fill:#0b0b0b" text-anchor="middle">0.01</text><rect x="325" y="97" width="74" height="32" rx="3" fill="#9ec5f4"/><text x="362" y="117" style="font-size:10.5px;font-variant-numeric:tabular-nums;fill:#0b0b0b" text-anchor="middle">0.04</text><rect x="401" y="97" width="74" height="32" rx="3" fill="#3987e5"/><text x="438" y="117" style="font-size:10.5px;font-variant-numeric:tabular-nums;fill:#0b0b0b" text-anchor="middle">0.27</text><rect x="477" y="97" width="74" height="32" rx="3" fill="#3987e5"/><text x="514" y="117" style="font-size:10.5px;font-variant-numeric:tabular-nums;fill:#0b0b0b" text-anchor="middle">0.24</text><rect x="553" y="97" width="74" height="32" rx="3" fill="#9ec5f4"/><text x="590" y="117" style="font-size:10.5px;font-variant-numeric:tabular-nums;fill:#0b0b0b" text-anchor="middle">0.05</text><rect x="629" y="97" width="74" height="32" rx="3" fill="#cde2fb"/><text x="666" y="117" style="font-size:10.5px;font-variant-numeric:tabular-nums;fill:#0b0b0b" text-anchor="middle">0.01</text><text x="86" y="151" class="val" text-anchor="end">E2f2</text><rect x="97" y="131" width="74" height="32" rx="3" fill="#b7d3f6"/><text x="134" y="151" style="font-size:10.5px;font-variant-numeric:tabular-nums;fill:#0b0b0b" text-anchor="middle">0.02</text><rect x="173" y="131" width="74" height="32" rx="3" fill="#9ec5f4"/><text x="210" y="151" style="font-size:10.5px;font-variant-numeric:tabular-nums;fill:#0b0b0b" text-anchor="middle">0.07</text><rect x="249" y="131" width="74" height="32" rx="3" fill="#cde2fb"/><text x="286" y="151" style="font-size:10.5px;font-variant-numeric:tabular-nums;fill:#0b0b0b" text-anchor="middle">0</text><rect x="325" y="131" width="74" height="32" rx="3" fill="#cde2fb"/><text x="362" y="151" style="font-size:10.5px;font-variant-numeric:tabular-nums;fill:#0b0b0b" text-anchor="middle">0</text><rect x="401" y="131" width="74" height="32" rx="3" fill="#9ec5f4"/><text x="438" y="151" style="font-size:10.5px;font-variant-numeric:tabular-nums;fill:#0b0b0b" text-anchor="middle">0.05</text><rect x="477" y="131" width="74" height="32" rx="3" fill="#86b6ef"/><text x="514" y="151" style="font-size:10.5px;font-variant-numeric:tabular-nums;fill:#0b0b0b" text-anchor="middle">0.09</text><rect x="553" y="131" width="74" height="32" rx="3" fill="#cde2fb"/><text x="590" y="151" style="font-size:10.5px;font-variant-numeric:tabular-nums;fill:#0b0b0b" text-anchor="middle">0</text><rect x="629" y="131" width="74" height="32" rx="3" fill="#cde2fb"/><text x="666" y="151" style="font-size:10.5px;font-variant-numeric:tabular-nums;fill:#0b0b0b" text-anchor="middle">0</text><text x="86" y="185" class="val" text-anchor="end">E2f3</text><rect x="97" y="165" width="74" height="32" rx="3" fill="#86b6ef"/><text x="134" y="185" style="font-size:10.5px;font-variant-numeric:tabular-nums;fill:#0b0b0b" text-anchor="middle">0.09</text><rect x="173" y="165" width="74" height="32" rx="3" fill="#86b6ef"/><text x="210" y="185" style="font-size:10.5px;font-variant-numeric:tabular-nums;fill:#0b0b0b" text-anchor="middle">0.09</text><rect x="249" y="165" width="74" height="32" rx="3" fill="#6da7ec"/><text x="286" y="185" style="font-size:10.5px;font-variant-numeric:tabular-nums;fill:#0b0b0b" text-anchor="middle">0.12</text><rect x="325" y="165" width="74" height="32" rx="3" fill="#9ec5f4"/><text x="362" y="185" style="font-size:10.5px;font-variant-numeric:tabular-nums;fill:#0b0b0b" text-anchor="middle">0.05</text><rect x="401" y="165" width="74" height="32" rx="3" fill="#6da7ec"/><text x="438" y="185" style="font-size:10.5px;font-variant-numeric:tabular-nums;fill:#0b0b0b" text-anchor="middle">0.15</text><rect x="477" y="165" width="74" height="32" rx="3" fill="#5598e7"/><text x="514" y="185" style="font-size:10.5px;font-variant-numeric:tabular-nums;fill:#0b0b0b" text-anchor="middle">0.21</text><rect x="553" y="165" width="74" height="32" rx="3" fill="#6da7ec"/><text x="590" y="185" style="font-size:10.5px;font-variant-numeric:tabular-nums;fill:#0b0b0b" text-anchor="middle">0.13</text><rect x="629" y="165" width="74" height="32" rx="3" fill="#9ec5f4"/><text x="666" y="185" style="font-size:10.5px;font-variant-numeric:tabular-nums;fill:#0b0b0b" text-anchor="middle">0.06</text><text x="86" y="219" class="val" text-anchor="end">E2f4</text><rect x="97" y="199" width="74" height="32" rx="3" fill="#86b6ef"/><text x="134" y="219" style="font-size:10.5px;font-variant-numeric:tabular-nums;fill:#0b0b0b" text-anchor="middle">0.08</text><rect x="173" y="199" width="74" height="32" rx="3" fill="#86b6ef"/><text x="210" y="219" style="font-size:10.5px;font-variant-numeric:tabular-nums;fill:#0b0b0b" text-anchor="middle">0.1</text><rect x="249" y="199" width="74" height="32" rx="3" fill="#86b6ef"/><text x="286" y="219" style="font-size:10.5px;font-variant-numeric:tabular-nums;fill:#0b0b0b" text-anchor="middle">0.09</text><rect x="325" y="199" width="74" height="32" rx="3" fill="#9ec5f4"/><text x="362" y="219" style="font-size:10.5px;font-variant-numeric:tabular-nums;fill:#0b0b0b" text-anchor="middle">0.07</text><rect x="401" y="199" width="74" height="32" rx="3" fill="#86b6ef"/><text x="438" y="219" style="font-size:10.5px;font-variant-numeric:tabular-nums;fill:#0b0b0b" text-anchor="middle">0.1</text><rect x="477" y="199" width="74" height="32" rx="3" fill="#6da7ec"/><text x="514" y="219" style="font-size:10.5px;font-variant-numeric:tabular-nums;fill:#0b0b0b" text-anchor="middle">0.15</text><rect x="553" y="199" width="74" height="32" rx="3" fill="#5598e7"/><text x="590" y="219" style="font-size:10.5px;font-variant-numeric:tabular-nums;fill:#0b0b0b" text-anchor="middle">0.18</text><rect x="629" y="199" width="74" height="32" rx="3" fill="#86b6ef"/><text x="666" y="219" style="font-size:10.5px;font-variant-numeric:tabular-nums;fill:#0b0b0b" text-anchor="middle">0.1</text><text x="86" y="253" class="val" text-anchor="end">E2f5</text><rect x="97" y="233" width="74" height="32" rx="3" fill="#86b6ef"/><text x="134" y="253" style="font-size:10.5px;font-variant-numeric:tabular-nums;fill:#0b0b0b" text-anchor="middle">0.09</text><rect x="173" y="233" width="74" height="32" rx="3" fill="#9ec5f4"/><text x="210" y="253" style="font-size:10.5px;font-variant-numeric:tabular-nums;fill:#0b0b0b" text-anchor="middle">0.05</text><rect x="249" y="233" width="74" height="32" rx="3" fill="#9ec5f4"/><text x="286" y="253" style="font-size:10.5px;font-variant-numeric:tabular-nums;fill:#0b0b0b" text-anchor="middle">0.04</text><rect x="325" y="233" width="74" height="32" rx="3" fill="#b7d3f6"/><text x="362" y="253" style="font-size:10.5px;font-variant-numeric:tabular-nums;fill:#0b0b0b" text-anchor="middle">0.03</text><rect x="401" y="233" width="74" height="32" rx="3" fill="#2a78d6"/><text x="438" y="253" style="font-size:10.5px;font-variant-numeric:tabular-nums;fill:#0b0b0b" text-anchor="middle">0.29</text><rect x="477" y="233" width="74" height="32" rx="3" fill="#5598e7"/><text x="514" y="253" style="font-size:10.5px;font-variant-numeric:tabular-nums;fill:#0b0b0b" text-anchor="middle">0.17</text><rect x="553" y="233" width="74" height="32" rx="3" fill="#cde2fb"/><text x="590" y="253" style="font-size:10.5px;font-variant-numeric:tabular-nums;fill:#0b0b0b" text-anchor="middle">0.01</text><rect x="629" y="233" width="74" height="32" rx="3" fill="#b7d3f6"/><text x="666" y="253" style="font-size:10.5px;font-variant-numeric:tabular-nums;fill:#0b0b0b" text-anchor="middle">0.02</text><text x="86" y="287" class="val" text-anchor="end">E2f6</text><rect x="97" y="267" width="74" height="32" rx="3" fill="#3987e5"/><text x="134" y="287" style="font-size:10.5px;font-variant-numeric:tabular-nums;fill:#0b0b0b" text-anchor="middle">0.24</text><rect x="173" y="267" width="74" height="32" rx="3" fill="#1c5cab"/><text x="210" y="287" style="font-size:10.5px;font-variant-numeric:tabular-nums;fill:#ffffff" text-anchor="middle">0.46</text><rect x="249" y="267" width="74" height="32" rx="3" fill="#5598e7"/><text x="286" y="287" style="font-size:10.5px;font-variant-numeric:tabular-nums;fill:#0b0b0b" text-anchor="middle">0.22</text><rect x="325" y="267" width="74" height="32" rx="3" fill="#256abf"/><text x="362" y="287" style="font-size:10.5px;font-variant-numeric:tabular-nums;fill:#ffffff" text-anchor="middle">0.38</text><rect x="401" y="267" width="74" height="32" rx="3" fill="#2a78d6"/><text x="438" y="287" style="font-size:10.5px;font-variant-numeric:tabular-nums;fill:#0b0b0b" text-anchor="middle">0.32</text><rect x="477" y="267" width="74" height="32" rx="3" fill="#184f95"/><text x="514" y="287" style="font-size:10.5px;font-variant-numeric:tabular-nums;fill:#ffffff" text-anchor="middle">0.53</text><rect x="553" y="267" width="74" height="32" rx="3" fill="#184f95"/><text x="590" y="287" style="font-size:10.5px;font-variant-numeric:tabular-nums;fill:#ffffff" text-anchor="middle">0.57</text><rect x="629" y="267" width="74" height="32" rx="3" fill="#256abf"/><text x="666" y="287" style="font-size:10.5px;font-variant-numeric:tabular-nums;fill:#ffffff" text-anchor="middle">0.4</text><text x="86" y="321" class="val" text-anchor="end">E2f7</text><rect x="97" y="301" width="74" height="32" rx="3" fill="#3987e5"/><text x="134" y="321" style="font-size:10.5px;font-variant-numeric:tabular-nums;fill:#0b0b0b" text-anchor="middle">0.25</text><rect x="173" y="301" width="74" height="32" rx="3" fill="#3987e5"/><text x="210" y="321" style="font-size:10.5px;font-variant-numeric:tabular-nums;fill:#0b0b0b" text-anchor="middle">0.24</text><rect x="249" y="301" width="74" height="32" rx="3" fill="#cde2fb"/><text x="286" y="321" style="font-size:10.5px;font-variant-numeric:tabular-nums;fill:#0b0b0b" text-anchor="middle">0.01</text><rect x="325" y="301" width="74" height="32" rx="3" fill="#b7d3f6"/><text x="362" y="321" style="font-size:10.5px;font-variant-numeric:tabular-nums;fill:#0b0b0b" text-anchor="middle">0.01</text><rect x="401" y="301" width="74" height="32" rx="3" fill="#2a78d6"/><text x="438" y="321" style="font-size:10.5px;font-variant-numeric:tabular-nums;fill:#0b0b0b" text-anchor="middle">0.3</text><rect x="477" y="301" width="74" height="32" rx="3" fill="#2a78d6"/><text x="514" y="321" style="font-size:10.5px;font-variant-numeric:tabular-nums;fill:#0b0b0b" text-anchor="middle">0.33</text><rect x="553" y="301" width="74" height="32" rx="3" fill="#b7d3f6"/><text x="590" y="321" style="font-size:10.5px;font-variant-numeric:tabular-nums;fill:#0b0b0b" text-anchor="middle">0.02</text><rect x="629" y="301" width="74" height="32" rx="3" fill="#cde2fb"/><text x="666" y="321" style="font-size:10.5px;font-variant-numeric:tabular-nums;fill:#0b0b0b" text-anchor="middle">0</text><text x="86" y="355" class="val" text-anchor="end">E2f8</text><rect x="97" y="335" width="74" height="32" rx="3" fill="#3987e5"/><text x="134" y="355" style="font-size:10.5px;font-variant-numeric:tabular-nums;fill:#0b0b0b" text-anchor="middle">0.26</text><rect x="173" y="335" width="74" height="32" rx="3" fill="#256abf"/><text x="210" y="355" style="font-size:10.5px;font-variant-numeric:tabular-nums;fill:#ffffff" text-anchor="middle">0.38</text><rect x="249" y="335" width="74" height="32" rx="3" fill="#b7d3f6"/><text x="286" y="355" style="font-size:10.5px;font-variant-numeric:tabular-nums;fill:#0b0b0b" text-anchor="middle">0.02</text><rect x="325" y="335" width="74" height="32" rx="3" fill="#b7d3f6"/><text x="362" y="355" style="font-size:10.5px;font-variant-numeric:tabular-nums;fill:#0b0b0b" text-anchor="middle">0.03</text><rect x="401" y="335" width="74" height="32" rx="3" fill="#0d366b"/><text x="438" y="355" style="font-size:10.5px;font-variant-numeric:tabular-nums;fill:#ffffff" text-anchor="middle">0.71</text><rect x="477" y="335" width="74" height="32" rx="3" fill="#104281"/><text x="514" y="355" style="font-size:10.5px;font-variant-numeric:tabular-nums;fill:#ffffff" text-anchor="middle">0.62</text><rect x="553" y="335" width="74" height="32" rx="3" fill="#5598e7"/><text x="590" y="355" style="font-size:10.5px;font-variant-numeric:tabular-nums;fill:#0b0b0b" text-anchor="middle">0.18</text><rect x="629" y="335" width="74" height="32" rx="3" fill="#b7d3f6"/><text x="666" y="355" style="font-size:10.5px;font-variant-numeric:tabular-nums;fill:#0b0b0b" text-anchor="middle">0.02</text><text x="134" y="70" class="lbl" text-anchor="middle">P0 vCM</text><text x="134" y="85" class="note" text-anchor="middle">cycling</text><text x="210" y="70" class="lbl" text-anchor="middle">P7 vCM</text><text x="210" y="85" class="note" text-anchor="middle">cycling</text><text x="286" y="70" class="lbl" text-anchor="middle">P0 vCM</text><text x="286" y="85" class="note" text-anchor="middle">noncycling</text><text x="362" y="70" class="lbl" text-anchor="middle">P7 vCM</text><text x="362" y="85" class="note" text-anchor="middle">noncycling</text><text x="438" y="70" class="lbl" text-anchor="middle">P0 aCM</text><text x="438" y="85" class="note" text-anchor="middle">cycling</text><text x="514" y="70" class="lbl" text-anchor="middle">P7 aCM</text><text x="514" y="85" class="note" text-anchor="middle">cycling</text><text x="590" y="70" class="lbl" text-anchor="middle">P0 aCM</text><text x="590" y="85" class="note" text-anchor="middle">noncycling</text><text x="666" y="70" class="lbl" text-anchor="middle">P7 aCM</text><text x="666" y="85" class="note" text-anchor="middle">noncycling</text><line x1="400" y1="62" x2="400" y2="368" stroke="var(--axs)" stroke-width="1" stroke-linecap="butt"/><text x="12" y="408" class="note" text-anchor="start">• E2f1/7/8 are cycling-restricted (near-zero in every noncycling group).</text><text x="12" y="434.5" class="note" text-anchor="start">• E2f2 is near-absent except in cycling cells and rises with maturation (t = +2.18) — the endoreplication candidate.</text><text x="12" y="461" class="note" text-anchor="start">• E2f6 is the only member expressed in noncycling cells, and it rises (t = +4.12) — the exit enforcer.</text><text x="12" y="487.5" class="note" text-anchor="start">• E2f7 is flat across maturation (t = -0.20) while E2f8 rises (t = +2.28).</text></svg>